{"title":"Beyond.Sherwood.Forest.2009.BRRip.XviD.AC3-LEGi0N","uid":5766815,"size":846445188,"categoryP":"video","categoryS":"movies","magnet":"?xt=urn:btih:116906225501dbcd01f8c62b9501e9a5c5d6d0c6&amp;dn=Beyond.Sherwood.Forest.2009.BRRip.XviD.AC3-LEGi0N&amp;tr=udp%3A%2F%2Ftracker.openbittorrent.com%3A80&amp;tr=udp%3A%2F%2Fopen.demonii.com%3A1337&amp;tr=udp%3A%2F%2Ftracker.coppersurfer.tk%3A6969&amp;tr=udp%3A%2F%2Fexodus.desync.com%3A6969","seeders":0,"leechers":1,"uploader":"TvTeam","files":5,"time":1281942746,"description":". \n  &lt;a href=&quot;\nhttp://www.torrentday.com/&quot; rel=&quot;nofollow&quot; target=&quot;_NEW&quot;&gt;\nhttp://www.torrentday.com/&lt;/a&gt;        :     The Hottest Private Tracker On The Net!!!\n\n\n               www . TorrentDay . Com \n(((((((((((((= Enjoy No RAR releases =))))))))))))))))))))\n\n\n...................................NFO:....................................\n\n.[img]http://leetleech.org/images/02738764170603494812.png[/img] \n\n[b]Beyond Sherwood Forest 2009 BRRip XviD AC3-LEGi0N \n\n[img]http://leetleech.org/images/48874973695367351744.png[/img]\n[color=red]General[/color]\nFormat:AVI \nFile size: 801 MiB\nDuration: 1h 33mn\nOverall bit rate: 1 200 Kbps\nIMDb Rating: 4.9/10   296 votes \nGenre: Fantasy\nRelease Date: 28 November 2009  \nIMDb Link: http://www.imdb.com/title/tt1331323/\nSource: 1080p BluRay x264-iBEX   \n\n[color=red]Video[/color]\nFormat: MPEG-4 Visual\nFormat profile: Streaming Video@L1\nFormat settings, BVOP: Yes\nFormat settings, QPel: No\nFormat settings, GMC: No warppoints\nFormat settings, Matrix: Default (H.263)\nMuxing mode: Packed bitstream\nCodec ID: XVID\nBit rate: 998 Kbps\nWidth: 640 pixels\nHeight: 352 pixels\nDisplay aspect ratio: 16/9\nFrame rate: 23.976 fps\nResolution: 24 bits\nColorimetry: 4:2:0\nScan type: Progressive\nBits/(Pixel*Frame): 0.185\nStream size: 666 MiB (83%)\n\n[color=red]Audio[/color]\nFormat: AC-3\nBit rate mode: Constant\nBit rate: 192 Kbps\nChannel(s): 6 channels\nSampling rate: 48.0 KHz\nStream size: 128 MiB (16%)\n\n[img]http://leetleech.org/images/89524873606771859129.png[/img]\nEngland 1174: King Richard is away fighting the Crusade, his brother \nPrince John has been left in charge. In order to further international \ndiplomatic relations with Norway, the beautiful young Maid Marian is \nto be married off to a prince. A cursed girl who can change into a \nferocious dragon is used to find and pacify Robin Hood.\n\n[img]http://leetleech.org/images/84434050717770922575.png[/img]\nRobin Dunne\t... \tRobin Hood\nErica Durance\t... \tMaid Marian\nJulian Sands\t... \tMalcolm\nKatharine Isabelle\t... \tAlina\nMark Gibbon\t... \tLittle John\nCainan Wiebe\t... \tGareth\nRichard de Klerk\t... \tWill Scarlet\nBill Dow\t... \tFriar Tuck\nBrent Stait\t... \tGuy of Gisborne\nPaul Lazenby\t... \tBart Bartholemew\nDavid Palffy\t... \tSylvan Elder\nTerence Kelly\t... \tFitzwater\nRowen Kahn\t... \tYoung Robin Hood\nAnna Louise Sargeant\t... \tYoung Marion\nJohn Novak\t... \tRoland   \n\n[color=red]GREETZ[/color]\nNoir | xXTHORNXx | bigimac | LUSi |\n\nkempas | KaN1vE | mike160 | skillz |\n\nLungbuster | Sheikh | DiLLoN1369 |\n\nFLAWL3SS | AND ALL P2P!\n\n[color=red]SAMPLE INCLUDED[/color][/b]\n\n[img]http://leetleech.org/images/95521316153253938506.png[/img]\n[img]http://leetleech.org/images/46144473567098366915.png[/img] \n[img]http://leetleech.org/images/96450780423328973217.png[/img] \n[img]http://leetleech.org/images/17375021391808564864.png[/img] \n[img]http://leetleech.org/images/19156054406074721820.png[/img]\n[img]http://leetleech.org/images/61114965091524509821.png[/img]\n[img]http://leetleech.org/images/20113120694741331121.png[/img]\n[img]http://leetleech.org/images/59378038954269481655.png[/img]\n[img]http://leetleech.org/images/65666220263442745634.png[/img]\n[img]http://leetleech.org/images/26187507027526015145.png[/img]\n[img]http://leetleech.org/images/12755021538703799215.png[/img]","torrent":{"xt":"urn:btih:116906225501dbcd01f8c62b9501e9a5c5d6d0c6","amp;dn":"Beyond.Sherwood.Forest.2009.BRRip.XviD.AC3-LEGi0N","amp;tr":["udp%3A%2F%2Ftracker.openbittorrent.com%3A80","udp%3A%2F%2Fopen.demonii.com%3A1337","udp%3A%2F%2Ftracker.coppersurfer.tk%3A6969","udp%3A%2F%2Fexodus.desync.com%3A6969"],"infoHash":"116906225501dbcd01f8c62b9501e9a5c5d6d0c6","infoHashBuffer":{"type":"Buffer","data":[17,105,6,34,85,1,219,205,1,248,198,43,149,1,233,165,197,214,208,198]},"announce":[],"urlList":[]}}